<svg xmlns="http://www.w3.org/2000/svg" enable-background="new 0 0 36 36" viewBox="0 0 36 36"><path fill="#EFEFEF" d="M13.411,34.999c6.298-2.859,12.105-1.559,15.14-2.936c3.035-1.378,8.617-6.016,2.28-19.978S14.99-0.035,11.651,1.48C-3.981,8.575,2.256,40.062,13.411,34.999z"/><path fill="#A4AFC1" d="M27.25,11.679c-0.827,0-1.5-0.673-1.5-1.5s0.673-1.5,1.5-1.5s1.5,0.673,1.5,1.5S28.077,11.679,27.25,11.679z M27.25,9.679c-0.276,0-0.5,0.224-0.5,0.5s0.224,0.5,0.5,0.5s0.5-0.224,0.5-0.5S27.526,9.679,27.25,9.679z"/><rect width="1" height="2" x="7.375" y="4.025" fill="#A4AFC1"/><rect width="1" height="2" x="7.375" y="9.775" fill="#A4AFC1"/><rect width="2" height="1" x="3.875" y="7.275" fill="#A4AFC1"/><rect width="2" height="1" x="9.625" y="7.275" fill="#A4AFC1"/><path fill="#2FDF84" d="M18,6.75l1.952,4.402l2.44-1.467l-0.791,4.756c-0.07,0.422,0.397,0.725,0.752,0.487l1.991-1.33l0.976,1.875l2.929-0.897l-1.952,2.935l1.952,0.978l-4.669,2.978c-0.404,0.257-0.562,0.77-0.373,1.211l1.137,2.66l0,0c-4.084-1.574-8.606-1.574-12.69,0l0,0l1.137-2.66c0.188-0.441,0.03-0.953-0.373-1.211L7.75,18.489l1.952-0.978L7.75,14.576l2.929,0.897l0.976-1.875l1.991,1.33c0.356,0.238,0.822-0.065,0.752-0.487l-0.791-4.756l2.44,1.467L18,6.75z"/><polygon fill="#00B871" points="27.571 15.473 27.674 15.441 28.25 14.576 27.262 14.879"/><polygon fill="#00B871" points="18.298 11.152 19.125 9.287 18 6.75 16.521 10.084"/><polygon fill="#00B871" points="22.163 11.064 22.393 9.685 21.729 10.084"/><path fill="#00B871" d="M24.604 14.928l.322-.215-.581-1.115-.397.265-.096.577C23.782 14.863 24.249 15.166 24.604 14.928zM19.125 24.208c1.773.113 3.534.479 5.22 1.129l-.323-.755C22.41 24.229 20.764 24.103 19.125 24.208zM11.655 25.337c.841-.324 1.703-.565 2.573-.755l.814-1.904c.188-.441.03-.953-.373-1.211L10 18.489l1.952-.978-1.377-2.07L7.75 14.576l1.952 2.935L7.75 18.489l4.669 2.977c.404.257.562.77.373 1.211L11.655 25.337zM15.896 14.928c.355.238.822-.065.752-.487l-.562-3.376-.039.088-2.44-1.467.695 4.179L15.896 14.928z"/><polygon fill="#00B871" points="12.929 15.473 13.324 14.713 11.655 13.598 10.988 14.879"/><g><rect width="1.5" height="5.094" x="17.25" y="24.156"/></g><g><path d="M24.345,26.087c-0.091,0-0.182-0.017-0.27-0.05c-3.918-1.51-8.233-1.51-12.151,0c-0.281,0.107-0.601,0.038-0.81-0.179s-0.268-0.538-0.149-0.815l1.137-2.66c0.044-0.104,0.008-0.223-0.086-0.283l-4.669-2.978c-0.228-0.145-0.359-0.401-0.346-0.671c0.014-0.27,0.171-0.511,0.413-0.632l1.194-0.599l-1.482-2.229c-0.175-0.264-0.166-0.609,0.023-0.864c0.189-0.254,0.517-0.361,0.821-0.269l2.332,0.714l0.688-1.321c0.098-0.189,0.272-0.328,0.479-0.38c0.207-0.054,0.425-0.016,0.603,0.103l1.488,0.994l-0.692-4.161c-0.048-0.289,0.076-0.579,0.318-0.743c0.241-0.165,0.558-0.174,0.809-0.022l1.713,1.03l1.608-3.626c0.24-0.542,1.131-0.542,1.371,0l1.608,3.626l1.713-1.03c0.25-0.151,0.566-0.143,0.809,0.022c0.242,0.165,0.366,0.455,0.318,0.743l-0.692,4.161l1.488-0.994c0.177-0.118,0.397-0.157,0.603-0.103c0.207,0.053,0.381,0.191,0.479,0.38l0.688,1.321l2.332-0.714c0.305-0.092,0.632,0.015,0.821,0.269s0.198,0.6,0.023,0.864l-1.482,2.229l1.194,0.599c0.242,0.121,0.399,0.362,0.413,0.632c0.014,0.27-0.118,0.526-0.346,0.671l-4.669,2.978c-0.095,0.061-0.131,0.179-0.087,0.283l1.137,2.66c0.119,0.277,0.06,0.599-0.149,0.815C24.741,26.007,24.545,26.087,24.345,26.087z M9.268,18.567l3.555,2.267c0.717,0.457,0.994,1.356,0.659,2.138L13,24.099c3.272-0.926,6.728-0.926,10,0l-0.481-1.126c-0.335-0.782-0.058-1.681,0.66-2.138l3.554-2.267l-0.771-0.386c-0.192-0.096-0.334-0.27-0.389-0.478c-0.055-0.208-0.019-0.429,0.101-0.608l0.791-1.188l-0.923,0.283c-0.347,0.103-0.718-0.05-0.885-0.371l-0.59-1.133l-1.296,0.866c-0.411,0.274-0.944,0.278-1.358,0.011c-0.416-0.269-0.631-0.757-0.55-1.245l0.524-3.153l-1.048,0.63c-0.185,0.112-0.405,0.138-0.613,0.073c-0.205-0.065-0.373-0.215-0.459-0.411L18,8.6l-1.267,2.856c-0.087,0.196-0.254,0.346-0.459,0.411c-0.206,0.065-0.428,0.04-0.613-0.073l-1.048-0.63l0.524,3.153c0.081,0.488-0.134,0.976-0.55,1.245c-0.414,0.267-0.948,0.264-1.358-0.011l-1.296-0.866l-0.59,1.133c-0.167,0.321-0.539,0.474-0.885,0.371l-0.923-0.283l0.791,1.188c0.119,0.179,0.155,0.4,0.101,0.608c-0.055,0.208-0.197,0.382-0.389,0.478L9.268,18.567z"/></g></svg>