<svg xmlns="http://www.w3.org/2000/svg" data-name="Layer 1" viewBox="0 0 32 32"><path fill="#fff" d="M20.95111,30.84575,17.96517,24.331a2.16175,2.16175,0,0,0-3.93034,0l-2.98594,6.51478a1.17509,1.17509,0,0,1-2.10735.05911l-.59808-1.13259A13.13782,13.13782,0,0,1,7.49232,19.5109l.02008-.06061A3.5813,3.5813,0,0,0,7.50926,17.164L5.61832,11.5724a5.37426,5.37426,0,0,1,6.60985-6.87686l2.75928.81294a3.58284,3.58284,0,0,0,2.0251,0l2.75928-.81294a5.37426,5.37426,0,0,1,6.60985,6.87686L24.49074,17.164a3.58285,3.58285,0,0,0-.00707,2.27444v0a13.3172,13.3172,0,0,1-.8653,10.4059l-.56,1.06049A1.17505,1.17505,0,0,1,20.95111,30.84575Z"/><path fill="#fbea9a" d="M31.507 3.56621c-2.2.49706-2.60294.9-3.1 3.1-.49706-2.2-.9-2.60294-3.1-3.1 2.2-.49706 2.60294-.9 3.1-3.1C28.90407 2.66621 29.307 3.06915 31.507 3.56621zM11.875 6.5C9.125 7.12132 8.62132 7.625 8 10.375 7.37868 7.625 6.875 7.12132 4.125 6.5 6.875 5.87868 7.37868 5.375 8 2.625 8.62132 5.375 9.125 5.87868 11.875 6.5z"/><path d="M19.62891,4.22021,17.04,4.97852a.50781.50781,0,0,0-.06641.0166l-.10254.03418a3.12906,3.12906,0,0,1-1.74023.00049l-2.76074-.80957a5.79969,5.79969,0,0,0-3.363.02625A9.42522,9.42522,0,0,1,8.4873,2.51465a.49954.49954,0,0,0-.97461,0c-.57812,2.56006-.93848,2.91943-3.498,3.49756a.50015.50015,0,0,0,0,.97559,12.66812,12.66812,0,0,1,1.37183.37482,5.69145,5.69145,0,0,0-.24,4.36737l1.88965,5.59033A3.15324,3.15324,0,0,1,7.01563,19.353a13.70574,13.70574,0,0,0,.88281,10.65186L8.498,31.13379a1.604,1.604,0,0,0,1.52637.89746,1.67144,1.67144,0,0,0,1.48047-.97314l2.97852-6.51758a1.66946,1.66946,0,0,1,3.03125-.00244l2.98242,6.52344a1.66905,1.66905,0,0,0,1.47852.96973l.043.00049a1.67236,1.67236,0,0,0,1.4834-.89795l.56055-1.06055a13.77684,13.77684,0,0,0,.89355-10.7876,3.14456,3.14456,0,0,1,.00781-1.96533L26.85352,11.731a5.869,5.869,0,0,0-7.22461-7.51074ZM8,4.44287a4.54581,4.54581,0,0,0,.26953.5575c.00385.01221.002.02472.00684.03674a.45872.45872,0,0,0,.04059.0614A3.16614,3.16614,0,0,0,10.05664,6.5,3.20885,3.20885,0,0,0,8,8.55713,3.15511,3.15511,0,0,0,6.382,6.71228c-.01178-.00873-.01874-.02142-.03143-.02917a.47778.47778,0,0,0-.11768-.043C6.13434,6.59454,6.052,6.54224,5.94336,6.5A3.20885,3.20885,0,0,0,8,4.44287Zm17.90625,6.9668L24.0166,17a4.15264,4.15264,0,0,0-.01172,2.5957A12.77062,12.77062,0,0,1,23.17773,29.606L22.61719,30.666a.65558.65558,0,0,1-.61621.36523.66327.66327,0,0,1-.5957-.38916l-2.98242-6.52246a2.6694,2.6694,0,0,0-4.84766.00244l-2.97852,6.5166a.67608.67608,0,0,1-1.21484.02637l-.59961-1.12842a12.73819,12.73819,0,0,1-.79785-9.93018A4.0907,4.0907,0,0,0,7.9834,17L6.09375,11.4082a4.71052,4.71052,0,0,1,.18341-3.59271c.6344.47736.90631,1.21191,1.23553,2.66986a.49954.49954,0,0,0,.97461,0c.57813-2.56006.93848-2.91943,3.498-3.49756a.50015.50015,0,0,0,0-.97559,5.43385,5.43385,0,0,1-2.36859-.90991,4.86709,4.86709,0,0,1,2.47308.07788l2.76172.81006a4.158,4.158,0,0,0,.60358.12354,4.41486,4.41486,0,0,0-1.02838,1.98486.49982.49982,0,0,0,.38086.59619.50945.50945,0,0,0,.10742.01172.50068.50068,0,0,0,.48828-.39209,3.45221,3.45221,0,0,1,1.93646-2.38171l2.57135-.75305a4.86871,4.86871,0,0,1,5.99512,6.23Zm5.71094-8.33105c-2.0127-.45459-2.26758-.709-2.72266-2.72266a.51815.51815,0,0,0-.97461,0c-.45508,2.01318-.71,2.26758-2.72363,2.72266a.50015.50015,0,0,0,0,.97559c2.01367.45508,2.26855.70947,2.72363,2.72217a.49954.49954,0,0,0,.97461,0c.45508-2.01318.71-2.26758,2.72266-2.72217a.50015.50015,0,0,0,0-.97559Zm-3.21,1.88232a2.57366,2.57366,0,0,0-1.39551-1.39453,2.573,2.573,0,0,0,1.39551-1.395,2.57122,2.57122,0,0,0,1.39453,1.395A2.57036,2.57036,0,0,0,28.40723,4.96094Z"/></svg>